HIERARCHY
ROOT hips
{
	OFFSET -0.003675 0.299928 -0.021708
	CHANNELS 6 Xposition Yposition Zposition Xrotation Yrotation Zrotation
	JOINT LowerBack
	{
		OFFSET 0.000919 0.177588 0.009275
		CHANNELS 3 Xrotation Yrotation Zrotation
		JOINT spine
		{
			OFFSET 0.000919 0.177588 0.009275
			CHANNELS 3 Xrotation Yrotation Zrotation
			JOINT chest
			{
				OFFSET 0.000456 0.100015 0.004638
				CHANNELS 3 Xrotation Yrotation Zrotation
				JOINT neck
				{
					OFFSET 0.000456 0.100015 0.004638
					CHANNELS 3 Xrotation Yrotation Zrotation
					JOINT head
					{
						OFFSET 0.000924 0.155147 0.009274
						CHANNELS 6 Xposition Yposition Zposition Xrotation Yrotation Zrotation
						End Site
						{
							OFFSET 0.000000 0.153400 0.000000
						}
					}
				}
				JOINT shoulder.L
				{
					OFFSET 0.019937 0.078966 0.057518
					CHANNELS 6 Xposition Yposition Zposition Yrotation Xrotation Zrotation
					JOINT upper_arm.L
					{
						OFFSET 0.177024 -0.020465 -0.095062
						CHANNELS 6 Xposition Yposition Zposition Xrotation Yrotation Zrotation
						JOINT forearm.L
						{
							OFFSET 0.247100 -0.135500 -0.061800
							CHANNELS 3 Xrotation Yrotation Zrotation
							JOINT hand.L
							{
								OFFSET 0.217000 -0.143000 0.039300
								CHANNELS 3 Xrotation Yrotation Zrotation
								JOINT palm.01.L
								{
									OFFSET 0.021770 -0.038291 0.012954
									CHANNELS 6 Xposition Yposition Zposition Yrotation Xrotation Zrotation
									JOINT f_index.01.L
									{
										OFFSET 0.053215 -0.044137 0.008236
										CHANNELS 3 Xrotation Yrotation Zrotation
										JOINT f_index.02.L
										{
											OFFSET 0.036108 -0.024723 -0.010656
											CHANNELS 3 Xrotation Yrotation Zrotation
											JOINT f_index.03.L
											{
												OFFSET 0.021342 -0.014948 -0.010846
												CHANNELS 3 Xrotation Yrotation Zrotation
												End Site
												{
													OFFSET 0.015600 -0.009860 -0.013421
												}
											}
										}
									}
									JOINT thumb.01.L
									{
										OFFSET -0.009090 -0.002348 -0.024223
										CHANNELS 6 Xposition Yposition Zposition Xrotation Yrotation Zrotation
										JOINT thumb.02.L
										{
											OFFSET 0.019713 -0.035076 -0.011120
											CHANNELS 3 Xrotation Yrotation Zrotation
											JOINT thumb.03.L
											{
												OFFSET 0.024877 -0.021748 -0.005176
												CHANNELS 3 Xrotation Yrotation Zrotation
												End Site
												{
													OFFSET 0.016125 -0.013029 -0.001569
												}
											}
										}
									}
								}
								JOINT palm.02.L
								{
									OFFSET 0.032823 -0.025104 0.012281
									CHANNELS 6 Xposition Yposition Zposition Yrotation Xrotation Zrotation
									JOINT f_middle.01.L
									{
										OFFSET 0.055723 -0.038469 0.008037
										CHANNELS 3 Xrotation Yrotation Zrotation
										JOINT f_middle.02.L
										{
											OFFSET 0.038167 -0.027473 -0.015582
											CHANNELS 3 Xrotation Yrotation Zrotation
											JOINT f_middle.03.L
											{
												OFFSET 0.021707 -0.016587 -0.017037
												CHANNELS 3 Xrotation Yrotation Zrotation
												End Site
												{
													OFFSET 0.014112 -0.010584 -0.014294
												}
											}
										}
									}
								}
								JOINT palm.03.L
								{
									OFFSET 0.039230 -0.011402 0.008390
									CHANNELS 6 Xposition Yposition Zposition Yrotation Xrotation Zrotation
									JOINT f_ring.01.L
									{
										OFFSET 0.061796 -0.031470 0.007910
										CHANNELS 3 Xrotation Yrotation Zrotation
										JOINT f_ring.02.L
										{
											OFFSET 0.033092 -0.023401 -0.019127
											CHANNELS 3 Xrotation Yrotation Zrotation
											JOINT f_ring.03.L
											{
												OFFSET 0.021392 -0.015362 -0.017824
												CHANNELS 3 Xrotation Yrotation Zrotation
												End Site
												{
													OFFSET 0.008670 -0.007297 -0.014686
												}
											}
										}
									}
								}
								JOINT palm.04.L
								{
									OFFSET 0.043417 0.002450 0.002889
									CHANNELS 6 Xposition Yposition Zposition Yrotation Xrotation Zrotation
									JOINT f_pinky.01.L
									{
										OFFSET 0.069986 -0.026156 0.003627
										CHANNELS 3 Xrotation Yrotation Zrotation
										JOINT f_pinky.02.L
										{
											OFFSET 0.018520 -0.012813 -0.016429
											CHANNELS 3 Xrotation Yrotation Zrotation
											JOINT f_pinky.03.L
											{
												OFFSET 0.013822 -0.009796 -0.014947
												CHANNELS 3 Xrotation Yrotation Zrotation
												End Site
												{
													OFFSET 0.007238 -0.006103 -0.011657
												}
											}
										}
									}
								}
							}
						}
					}
				}
				JOINT shoulder.R
				{
					OFFSET -0.016662 0.078957 0.057696
					CHANNELS 6 Xposition Yposition Zposition Yrotation Xrotation Zrotation
					JOINT upper_arm.R
					{
						OFFSET -0.176972 -0.020537 -0.095144
						CHANNELS 6 Xposition Yposition Zposition Xrotation Yrotation Zrotation
						JOINT forearm.R
						{
							OFFSET -0.247100 -0.135500 -0.061800
							CHANNELS 3 Xrotation Yrotation Zrotation
							JOINT hand.R
							{
								OFFSET -0.217000 -0.143000 0.039300
								CHANNELS 3 Xrotation Yrotation Zrotation
								JOINT palm.01.R
								{
									OFFSET -0.021773 -0.038278 0.012988
									CHANNELS 6 Xposition Yposition Zposition Yrotation Xrotation Zrotation
									JOINT f_index.01.R
									{
										OFFSET -0.053212 -0.044139 0.008249
										CHANNELS 3 Xrotation Yrotation Zrotation
										JOINT f_index.02.R
										{
											OFFSET -0.036049 -0.024835 -0.010634
											CHANNELS 3 Xrotation Yrotation Zrotation
											JOINT f_index.03.R
											{
												OFFSET -0.021371 -0.014881 -0.010866
												CHANNELS 3 Xrotation Yrotation Zrotation
												End Site
												{
													OFFSET -0.015584 -0.009883 -0.013422
												}
											}
										}
									}
									JOINT thumb.01.R
									{
										OFFSET 0.009113 -0.002381 -0.024211
										CHANNELS 6 Xposition Yposition Zposition Xrotation Yrotation Zrotation
										JOINT thumb.02.R
										{
											OFFSET -0.019694 -0.035097 -0.011088
											CHANNELS 3 Xrotation Yrotation Zrotation
											JOINT thumb.03.R
											{
												OFFSET -0.024867 -0.021762 -0.005168
												CHANNELS 3 Xrotation Yrotation Zrotation
												End Site
												{
													OFFSET -0.016120 -0.013036 -0.001565
												}
											}
										}
									}
								}
								JOINT palm.02.R
								{
									OFFSET -0.032828 -0.025095 0.012286
									CHANNELS 6 Xposition Yposition Zposition Yrotation Xrotation Zrotation
									JOINT f_middle.01.R
									{
										OFFSET -0.055721 -0.038472 0.008040
										CHANNELS 3 Xrotation Yrotation Zrotation
										JOINT f_middle.02.R
										{
											OFFSET -0.038101 -0.027593 -0.015557
											CHANNELS 3 Xrotation Yrotation Zrotation
											JOINT f_middle.03.R
											{
												OFFSET -0.021730 -0.016530 -0.017054
												CHANNELS 3 Xrotation Yrotation Zrotation
												End Site
												{
													OFFSET -0.014096 -0.010608 -0.014293
												}
											}
										}
									}
								}
								JOINT palm.03.R
								{
									OFFSET -0.039192 -0.011488 0.008390
									CHANNELS 6 Xposition Yposition Zposition Yrotation Xrotation Zrotation
									JOINT f_ring.01.R
									{
										OFFSET -0.061839 -0.031387 0.007876
										CHANNELS 3 Xrotation Yrotation Zrotation
										JOINT f_ring.02.R
										{
											OFFSET -0.033068 -0.023437 -0.019125
											CHANNELS 3 Xrotation Yrotation Zrotation
											JOINT f_ring.03.R
											{
												OFFSET -0.021371 -0.015393 -0.017822
												CHANNELS 3 Xrotation Yrotation Zrotation
												End Site
												{
													OFFSET -0.008654 -0.007321 -0.014684
												}
											}
										}
									}
								}
								JOINT palm.04.R
								{
									OFFSET -0.043421 0.002443 0.002845
									CHANNELS 6 Xposition Yposition Zposition Yrotation Xrotation Zrotation
									JOINT f_pinky.01.R
									{
										OFFSET -0.069983 -0.026169 0.003599
										CHANNELS 3 Xrotation Yrotation Zrotation
										JOINT f_pinky.02.R
										{
											OFFSET -0.018501 -0.012842 -0.016428
											CHANNELS 3 Xrotation Yrotation Zrotation
											JOINT f_pinky.03.R
											{
												OFFSET -0.013806 -0.009821 -0.014946
												CHANNELS 3 Xrotation Yrotation Zrotation
												End Site
												{
													OFFSET -0.007226 -0.006121 -0.011655
												}
											}
										}
									}
								}
							}
						}
					}
				}
			}
		}
	}
	JOINT pelvis.L
	{
		OFFSET 0.000000 0.000000 0.000000
		CHANNELS 6 Xposition Yposition Zposition Xrotation Yrotation Zrotation
		JOINT thigh.L
		{
			OFFSET 0.101675 0.001054 -0.000000
			CHANNELS 3 Xrotation Yrotation Zrotation
			JOINT shin.L
			{
				OFFSET 0.000000 -0.534800 0.041000
				CHANNELS 3 Xrotation Yrotation Zrotation
				JOINT foot.L
				{
					OFFSET 0.000000 -0.452000 -0.044800
					CHANNELS 3 Xrotation Yrotation Zrotation
					JOINT toe.L
					{
						OFFSET -0.000000 -0.068500 0.109600
						CHANNELS 3 Xrotation Yrotation Zrotation
						End Site
						{
							OFFSET -0.000000 0.000000 0.067200
						}
					}
				}
				JOINT heel.L
				{
					OFFSET 0.000000 -0.452000 -0.044800
					CHANNELS 3 Xrotation Yrotation Zrotation
					JOINT heel.02.L
					{
						OFFSET -0.038000 -0.085200 0.016200
						CHANNELS 6 Xposition Yposition Zposition Xrotation Yrotation Zrotation
						End Site
						{
							OFFSET 0.080000 -0.000000 0.000000
						}
					}
				}
			}
		}
	}
	JOINT pelvis.R
	{
		OFFSET 0.000000 0.000000 0.000000
		CHANNELS 6 Xposition Yposition Zposition Xrotation Yrotation Zrotation
		JOINT thigh.R
		{
			OFFSET -0.094325 0.001054 0.000000
			CHANNELS 3 Xrotation Yrotation Zrotation
			JOINT shin.R
			{
				OFFSET 0.000000 -0.534800 0.041000
				CHANNELS 3 Xrotation Yrotation Zrotation
				JOINT foot.R
				{
					OFFSET 0.000000 -0.452000 -0.044800
					CHANNELS 3 Xrotation Yrotation Zrotation
					JOINT toe.R
					{
						OFFSET -0.000000 -0.068500 0.109600
						CHANNELS 3 Xrotation Yrotation Zrotation
						End Site
						{
							OFFSET -0.000000 0.000000 0.067200
						}
					}
				}
				JOINT heel.R
				{
					OFFSET 0.000000 -0.452000 -0.044800
					CHANNELS 3 Xrotation Yrotation Zrotation
					JOINT heel.02.R
					{
						OFFSET 0.038000 -0.085200 0.016200
						CHANNELS 6 Xposition Yposition Zposition Xrotation Yrotation Zrotation
						End Site
						{
							OFFSET -0.080000 0.000000 -0.000000
						}
					}
				}
			}
		}
	}
}
MOTION
Frames: 4
Frame Time: 0.041667
0.011177 0.272628 -0.018857 95.263920 -31.872511 87.042729 0.000004 -0.000000 -0.000001 0.000000 0.000001 0.000000 -0.000004 -0.000000 -0.000000 -0.000001 -0.000000 -0.000000 0.000924 0.155147 0.009274 11.297114 -0.017299 1.389338 0.019937 0.078966 0.057518 -24.180120 1.652030 36.042287 0.177025 -0.020465 -0.095062 -63.794889 17.826910 -52.814557 -7.113087 -9.403863 -5.288017 -0.000002 -0.000004 0.000002 0.021770 -0.038291 0.012954 0.000000 0.000000 0.000001 0.000000 0.000001 0.000003 0.000000 -0.000000 0.000007 0.000002 0.000003 -0.000002 -0.009090 -0.002348 -0.024224 0.000005 0.000000 0.000006 0.000004 0.000002 0.000006 -0.000001 0.000004 -0.000002 0.032823 -0.025104 0.012281 -0.000001 -0.000001 0.000004 -0.000001 0.000002 -0.000002 -0.000005 -0.000002 -0.000000 0.000000 -0.000003 0.000001 0.039230 -0.011402 0.008390 -0.000000 -0.000000 0.000004 0.000000 0.000003 -0.000000 0.000001 0.000003 0.000001 -0.000000 0.000002 0.000003 0.043417 0.002450 0.002889 -0.000001 0.000001 -0.000003 -0.000000 -0.000003 -0.000000 -0.000001 -0.000001 -0.000003 -0.000001 -0.000003 -0.000001 -0.016662 0.078956 0.057696 -11.199808 2.707936 -29.558030 -0.176972 -0.020537 -0.095144 -49.721137 -12.610342 55.587549 -9.598823 8.981954 23.922461 0.000001 0.000001 -0.000000 -0.021773 -0.038278 0.012988 -0.000002 -0.000000 0.000002 -0.000003 0.000004 -0.000004 -0.000001 -0.000000 -0.000008 0.000001 0.000003 0.000003 0.009114 -0.002381 -0.024211 -0.000000 0.000000 -0.000004 -0.000000 -0.000001 0.000000 0.000001 0.000000 0.000003 -0.032828 -0.025095 0.012286 0.000001 0.000001 -0.000001 -0.000000 0.000002 -0.000006 -0.000000 0.000002 0.000003 -0.000001 0.000001 -0.000004 -0.039192 -0.011488 0.008390 0.000001 0.000001 0.000003 -0.000000 0.000001 0.000000 -0.000000 0.000000 -0.000000 0.000001 -0.000005 -0.000000 -0.043421 0.002443 0.002845 0.000000 0.000001 0.000002 -0.000003 0.000005 -0.000001 -0.000002 -0.000003 0.000000 0.000001 0.000002 -0.000003 0.000000 0.000000 -0.000000 -2.122222 0.396000 -5.384389 -91.602563 -0.316137 -0.264433 49.149580 0.226166 -2.280370 0.000002 -0.000000 0.000002 0.000003 -0.000001 0.000001 0.000002 0.000000 0.000001 -0.038000 -0.085200 0.016200 -0.000004 -0.000001 0.000000 -0.000000 0.000000 -0.000000 -2.062623 0.391013 -4.150606 -97.437956 0.957897 7.993738 51.480778 1.691317 -17.331175 -0.000005 -0.000001 -0.000000 0.000001 -0.000000 -0.000000 0.000003 -0.000003 0.000000 0.038000 -0.085200 0.016200 0.000000 0.000001 -0.000001 
0.011853 0.271925 -0.019433 94.267368 -33.046931 84.711032 0.000001 0.000001 0.000001 0.000001 0.000001 -0.000000 0.000000 0.000000 -0.000000 -0.000000 -0.000000 -0.000001 0.000924 0.155148 0.009274 12.989002 -0.020273 2.537716 0.019937 0.078966 0.057518 -25.867970 1.475966 35.725834 0.177024 -0.020465 -0.095062 -62.719168 16.206208 -51.825956 -7.079677 -9.247606 -6.056888 -0.000003 -0.000002 -0.000002 0.021770 -0.038291 0.012954 0.000002 0.000002 -0.000001 0.000001 -0.000004 0.000003 -0.000003 -0.000002 0.000006 0.000001 0.000005 -0.000001 -0.009090 -0.002348 -0.024223 0.000003 -0.000004 0.000000 0.000002 -0.000003 0.000005 0.000001 0.000002 -0.000002 0.032823 -0.025104 0.012281 0.000002 0.000003 0.000002 -0.000001 -0.000001 -0.000003 -0.000002 -0.000002 0.000003 -0.000002 -0.000000 -0.000002 0.039230 -0.011402 0.008390 0.000004 0.000002 0.000006 0.000000 0.000000 -0.000000 0.000000 0.000005 -0.000001 0.000001 -0.000004 0.000003 0.043417 0.002450 0.002889 0.000001 0.000002 -0.000002 -0.000001 -0.000004 -0.000002 -0.000002 -0.000004 0.000002 0.000000 0.000001 0.000001 -0.016662 0.078957 0.057696 -13.229847 2.778245 -28.686033 -0.176972 -0.020537 -0.095144 -48.941854 -10.490030 53.612487 -8.251597 8.284153 24.128287 -0.000001 0.000000 0.000000 -0.021773 -0.038278 0.012988 -0.000000 0.000000 -0.000007 0.000000 0.000003 0.000001 -0.000000 -0.000000 -0.000006 -0.000003 0.000000 0.000003 0.009114 -0.002381 -0.024212 -0.000000 -0.000001 0.000001 0.000001 -0.000002 0.000000 0.000001 0.000000 -0.000006 -0.032828 -0.025095 0.012286 0.000000 0.000000 -0.000006 0.000002 0.000002 0.000008 0.000003 0.000001 0.000001 0.000002 0.000003 0.000000 -0.039192 -0.011488 0.008390 0.000000 0.000001 -0.000004 -0.000001 0.000000 -0.000002 0.000002 -0.000001 -0.000003 0.000002 -0.000001 -0.000001 -0.043421 0.002443 0.002845 -0.000001 0.000003 -0.000007 -0.000006 0.000003 -0.000002 0.000000 -0.000006 -0.000003 0.000002 -0.000002 0.000002 0.000000 0.000000 0.000000 -2.152112 0.443121 -5.876200 -90.450597 -0.263441 0.477569 49.878157 0.260516 -2.627262 0.000002 0.000000 0.000000 -0.000002 -0.000000 0.000001 0.000000 -0.000001 -0.000000 -0.038000 -0.085200 0.016200 -0.000001 -0.000000 0.000001 -0.000000 0.000000 0.000000 -2.090058 0.437393 -4.642484 -99.413588 0.980643 8.286158 52.711688 2.019595 -20.840256 -0.000003 0.000003 0.000002 0.000000 0.000001 0.000001 0.000003 0.000002 0.000002 0.038000 -0.085200 0.016200 -0.000003 -0.000001 -0.000000 
0.009285 0.268490 -0.021220 88.706187 -34.807508 82.712519 0.000002 -0.000000 0.000000 -0.000001 -0.000000 0.000000 0.000000 -0.000000 0.000000 -0.000000 -0.000000 -0.000000 0.000924 0.155148 0.009274 14.654973 -0.023836 4.049558 0.019937 0.078966 0.057518 -29.155991 1.074129 35.699411 0.177024 -0.020465 -0.095062 -59.502819 20.785878 -56.217911 -2.362926 -3.888209 -5.521609 -0.000003 -0.000002 0.000003 0.021770 -0.038291 0.012954 -0.000000 0.000002 -0.000001 -0.000002 -0.000001 -0.000002 0.000000 0.000003 0.000005 -0.000002 -0.000004 0.000003 -0.009090 -0.002348 -0.024224 -0.000003 -0.000001 -0.000001 0.000001 -0.000001 0.000001 0.000001 0.000000 -0.000006 0.032823 -0.025104 0.012281 -0.000001 0.000001 0.000007 -0.000001 0.000002 -0.000007 -0.000005 -0.000004 0.000006 -0.000001 -0.000004 0.000002 0.039230 -0.011402 0.008390 -0.000000 0.000002 0.000003 0.000003 0.000000 -0.000000 -0.000000 0.000003 0.000001 0.000002 -0.000005 0.000002 0.043417 0.002450 0.002889 0.000000 0.000002 -0.000002 0.000001 -0.000006 -0.000002 -0.000002 0.000004 -0.000001 0.000000 -0.000001 -0.000000 -0.016662 0.078956 0.057696 -17.609044 2.965774 -27.346160 -0.176972 -0.020537 -0.095144 -43.907984 -9.597026 53.403361 -7.340929 7.732755 22.881958 0.000001 0.000001 0.000004 -0.021773 -0.038278 0.012988 -0.000000 -0.000001 -0.000003 -0.000000 0.000001 -0.000003 -0.000002 0.000003 -0.000001 0.000002 -0.000001 0.000007 0.009114 -0.002381 -0.024211 0.000002 -0.000001 -0.000003 0.000000 -0.000001 -0.000001 0.000002 -0.000002 -0.000004 -0.032828 -0.025095 0.012286 0.000000 0.000000 0.000001 0.000002 0.000003 0.000006 0.000001 0.000001 0.000001 -0.000001 0.000003 -0.000002 -0.039192 -0.011488 0.008390 0.000001 0.000001 -0.000002 0.000000 0.000001 0.000000 0.000000 -0.000005 -0.000002 -0.000002 0.000004 -0.000000 -0.043421 0.002442 0.002845 0.000000 0.000001 0.000004 -0.000004 0.000002 -0.000001 0.000000 -0.000004 -0.000003 0.000003 -0.000002 0.000002 0.000000 0.000000 -0.000000 -2.271629 0.649340 -7.968621 -81.021493 -0.294474 0.071345 49.545677 0.180172 -1.816050 0.000000 0.000001 -0.000001 -0.000003 -0.000000 0.000001 -0.000003 -0.000002 -0.000000 -0.038000 -0.085200 0.016200 0.000001 0.000001 0.000000 0.000000 -0.000000 -0.000000 -2.198850 0.639917 -6.735258 -94.201525 1.159950 10.579696 43.726840 2.652703 -27.868171 0.000000 0.000002 0.000001 0.000002 0.000000 0.000000 0.000000 0.000001 0.000001 0.038000 -0.085200 0.016200 0.000002 -0.000001 -0.000001 
0.008598 0.266400 -0.018723 95.481052 -34.718418 89.208875 0.000000 0.000000 0.000000 0.000000 0.000001 0.000000 -0.000001 0.000001 0.000001 0.000001 0.000001 0.000000 0.000924 0.155147 0.009274 13.458928 -0.021983 2.836725 0.019937 0.078966 0.057518 -25.878492 0.626382 35.746649 0.177025 -0.020465 -0.095062 -57.985253 20.191696 -56.414719 1.812724 1.309790 -3.945267 -0.000000 0.000000 -0.000001 0.021770 -0.038291 0.012954 0.000001 0.000001 -0.000002 -0.000003 0.000001 0.000008 0.000003 0.000001 0.000007 -0.000003 0.000003 -0.000000 -0.009090 -0.002348 -0.024224 -0.000002 0.000004 -0.000000 -0.000000 -0.000000 0.000005 0.000000 0.000001 -0.000002 0.032823 -0.025104 0.012281 0.000000 -0.000002 0.000000 -0.000003 0.000002 -0.000005 -0.000003 -0.000002 0.000003 -0.000002 -0.000001 0.000003 0.039230 -0.011402 0.008390 -0.000000 0.000000 0.000001 0.000003 0.000000 -0.000002 0.000002 0.000005 0.000003 0.000005 -0.000000 0.000002 0.043417 0.002450 0.002889 0.000001 0.000002 -0.000005 -0.000000 -0.000001 -0.000002 -0.000000 0.000002 -0.000001 0.000001 -0.000002 -0.000002 -0.016662 0.078956 0.057696 -15.375246 2.376189 -27.995436 -0.176972 -0.020537 -0.095144 -43.782827 -10.888591 54.652964 -2.468943 4.399585 19.537768 -0.000001 0.000000 -0.000002 -0.021773 -0.038278 0.012988 0.000000 -0.000003 -0.000005 0.000001 -0.000000 -0.000005 -0.000003 -0.000002 -0.000003 -0.000001 0.000000 0.000008 0.009114 -0.002381 -0.024211 0.000003 -0.000003 0.000000 0.000003 -0.000001 0.000000 0.000001 -0.000000 0.000003 -0.032828 -0.025095 0.012286 0.000002 -0.000002 -0.000003 0.000001 0.000003 0.000002 0.000002 0.000000 -0.000002 -0.000005 0.000001 -0.000004 -0.039192 -0.011488 0.008390 0.000000 -0.000001 -0.000002 -0.000002 0.000002 -0.000003 -0.000001 -0.000001 0.000002 -0.000002 0.000000 -0.000003 -0.043421 0.002443 0.002845 -0.000001 -0.000002 0.000005 -0.000004 0.000004 0.000001 0.000001 0.000001 0.000002 -0.000000 0.000005 0.000005 0.000000 0.000000 -0.000000 -2.312139 0.556557 -6.926961 -79.704380 -0.180049 1.538562 48.393769 0.004184 -0.040164 0.000002 -0.000000 0.000001 -0.000002 -0.000000 -0.000001 0.000003 -0.000000 0.000001 -0.038000 -0.085200 0.016200 0.000003 0.000001 -0.000001 -0.000000 0.000000 -0.000000 -2.241807 0.548756 -5.693451 -90.925985 0.956962 7.879934 44.666036 2.475458 -25.859426 0.000002 0.000002 -0.000002 0.000001 -0.000003 0.000001 0.000009 -0.000000 -0.000001 0.038000 -0.085200 0.016200 -0.000003 0.000001 -0.000000 
